<?xml version="1.0" encoding="iso-8859-1"?>
<!-- Uploaded to: SVG Repo, www.svgrepo.com, Generator: SVG Repo Mixer Tools -->
<svg fill="rgb(124, 139, 149)" height="800px" width="800px" version="1.1" id="Layer_1" xmlns="http://www.w3.org/2000/svg" xmlns:xlink="http://www.w3.org/1999/xlink" 
	 viewBox="0 0 507.167 507.167" xml:space="preserve">
<g>
	<g>
		<path d="M2.139,282.317c-1.392,0.72-2.224,2.192-2.132,3.756c0.092,1.56,1.104,2.92,2.568,3.472l140.688,52.684L494.895,26.761
			L2.139,282.317z"/>
	</g>
</g>
<g>
	<g>
		<path d="M230.579,362.801l-21.864,117.252l64.188-95.552l150.676,62.976c1.1,0.46,2.356,0.4,3.408-0.16
			c1.06-0.576,1.804-1.584,2.024-2.76l78.156-412.412L230.579,362.801z"/>
	</g>
</g>
<g>
	<g>
		<path d="M151.775,350.577l44.768,129.828l22.608-121.312c0.192-0.996,0.632-1.932,1.288-2.716l225.904-270.08L151.775,350.577z"/>
	</g>
</g>
</svg>